<?xml version="1.0" encoding="UTF-8"?>
<svg version="1.1" xmlns="http://www.w3.org/2000/svg" width="1084" height="992">
<path d="M0 0 C357.72 0 715.44 0 1084 0 C1084 327.36 1084 654.72 1084 992 C726.28 992 368.56 992 0 992 C0 664.64 0 337.28 0 0 Z " fill="#000000" transform="translate(0,0)"/>
<path d="M0 0 C7.13301009 1.50890598 12.58885335 6.95390246 18.1875 11.375 C29.65679476 20.33226343 42.28206185 27.28363696 55.1875 33.9375 C67.31747669 40.21257596 77.26197345 46.44349195 87.12524414 55.91918945 C93.48414707 62.00958694 100.19322746 67.43208452 107.25 72.6875 C108.07371094 73.30753906 108.89742187 73.92757812 109.74609375 74.56640625 C114.87667157 78.29537597 120.26311638 81.46086146 125.75 84.625 C140.48478502 93.1859835 152.54881932 104.72928945 163.546875 117.69921875 C165.72782256 120.24532496 167.98851134 122.71272723 170.25 125.1875 C173.6889665 128.95793315 177.08039063 132.76042751 180.421875 136.6171875 C182.57394837 139.05436461 184.78949654 141.42821482 187 143.8125 C192.28865207 149.62200417 197.16740745 155.68911951 201.91503906 161.94628906 C203.15551405 163.56426046 204.43188437 165.15453743 205.7109375 166.7421875 C212.41154236 175.43779446 216.98870142 184.95478046 221.52099609 194.91870117 C224.81309546 202.07883618 228.48082546 208.41371158 233.25 214.6875 C233.90097656 215.59628906 234.55195312 216.50507812 235.22265625 217.44140625 C238.0716622 220.59781939 241.29663324 223.07361206 244.6875 225.625 C245.4290332 226.18638672 246.17056641 226.74777344 246.93457031 227.32617188 C267.37781709 242.61416512 289.39821432 255.76124742 311.40795898 268.63891602 C312.72969116 269.41319946 312.72969116 269.41319946 314.078125 270.203125 C314.8609082 270.65977539 315.64369141 271.11642578 316.45019531 271.58691406 C318.25 272.6875 318.25 272.6875 319.25 273.6875 C319.34701605 275.9024186 319.37186691 278.12049797 319.37025452 280.33753967 C319.37110894 281.0407651 319.37196337 281.74399053 319.37284368 282.46852583 C319.37450053 284.84240516 319.3689738 287.21621498 319.36352539 289.59008789 C319.36324354 291.28479511 319.36340122 292.97950245 319.3639679 294.67420959 C319.36425594 299.28971626 319.35835809 303.90519717 319.35139394 308.52069783 C319.34516156 313.33870264 319.34455669 318.15670797 319.34336853 322.97471619 C319.34025487 332.10492498 319.33204102 341.23512186 319.32201904 350.36532539 C319.31085898 360.75692676 319.30534772 371.14852868 319.30032361 381.54013455 C319.28985843 402.92259636 319.27225832 424.30504743 319.25 445.6875 C315.17974555 445.91287613 311.11198213 446.0745821 307.03686523 446.18188477 C305.65633802 446.22667685 304.27622597 446.28774413 302.8972168 446.36645508 C294.88417667 446.81178568 289.40769736 446.58364989 283.04711914 441.38110352 C281.42649204 439.83894139 279.82569147 438.27554679 278.25 436.6875 C276.78349436 435.45069929 275.30544258 434.22724307 273.80859375 433.02734375 C272.43487168 431.89325842 271.06117374 430.75914386 269.6875 429.625 C265.15129577 425.88258162 260.6083364 422.15359134 256 418.5 C252.87655392 416.0222411 249.82249183 413.47981455 246.79907227 410.88085938 C243.97070435 408.45740097 241.11341356 406.06937398 238.25 403.6875 C237.28465332 402.87925781 237.28465332 402.87925781 236.29980469 402.0546875 C227.90634016 395.09721329 219.978984 389.78009132 209.85205078 385.71191406 C202.12978657 382.4860519 196.3148649 377.52454597 189.99951172 372.140625 C175.98815214 360.50294537 161.31684278 353.99188702 143.0625 353.2578125 C141.47328009 353.18647579 139.88408825 353.11451161 138.29492188 353.04199219 C137.4717749 353.00505249 136.64862793 352.96811279 135.80053711 352.93005371 C120.47559911 352.22373059 105.41326747 351.0803162 90.25 348.6875 C88.78006463 348.46212805 87.31000256 348.23758165 85.83984375 348.01367188 C80.80853112 347.24700659 75.77884391 346.47018909 70.75 345.6875 C69.94248291 345.56193726 69.13496582 345.43637451 68.30297852 345.30700684 C59.06184992 343.86228559 49.89312802 342.25119804 40.72998047 340.37060547 C35.36617475 339.31771306 29.97079325 338.53486463 24.5625 337.75 C-0.13125288 334.00733358 -21.05227292 327.71194018 -43.91033936 317.65991211 C-55.15888825 312.71482025 -66.52928741 308.17079013 -78.02050781 303.8215332 C-84.14980117 301.49485476 -90.26088337 299.12983406 -96.31640625 296.6171875 C-97.42185791 296.1619873 -98.52730957 295.70678711 -99.66625977 295.23779297 C-104.86143328 292.62601625 -108.72310043 288.81579633 -112.75 284.6875 C-113.38421875 284.07648438 -114.0184375 283.46546875 -114.671875 282.8359375 C-117.54122989 280.05545644 -120.21472387 277.1689514 -122.796875 274.12109375 C-128.1858436 267.93007257 -134.17862116 262.31680712 -140.09960938 256.640625 C-147.60004545 249.2857761 -152.72620482 241.97657757 -156.4375 232.125 C-158.82166005 226.35282303 -161.73363476 221.32152903 -165.1875 216.125 C-168.58458878 211.00920094 -171.91599368 205.91154878 -174.9375 200.5625 C-175.48792969 199.59054687 -176.03835938 198.61859375 -176.60546875 197.6171875 C-177.99693292 194.05541916 -178.18771452 191.47953698 -177.75 187.6875 C-175.1551897 184.30458113 -171.26876321 182.94825151 -167.15625 182.2421875 C-157.51592234 181.82665614 -149.6631266 184.66135152 -142.4375 191 C-135.6760437 197.39411063 -130.68605826 204.06314229 -126.1875 212.1875 C-120.94283963 221.57892861 -116.80558563 228.49247152 -107.6875 234.4375 C-101.02821655 238.93955078 -95.12175984 243.71235873 -89.36328125 249.3125 C-84.70774108 253.54354398 -80.30258209 256.10785976 -74.2421875 257.79296875 C-73.00726562 258.13650391 -71.77234375 258.48003906 -70.5 258.83398438 C-69.86191406 259.00502686 -69.22382812 259.17606934 -68.56640625 259.35229492 C-66.64663983 259.86917368 -64.73338714 260.41005066 -62.8203125 260.95117188 C-55.11125255 263.05836824 -47.73905835 264.36552517 -39.75 264.6875 C-45.11751806 256.14826673 -54.55798448 254.37402784 -63.75 252.25 C-74.61493488 249.70695231 -81.73795139 246.06260452 -89.421875 237.89453125 C-92.32735211 235.14017795 -95.46845148 232.90714035 -98.75 230.625 C-109.9926253 222.79494067 -109.9926253 222.79494067 -113.75 218.6875 C-113.75 218.0275 -113.75 217.3675 -113.75 216.6875 C-96.54594786 219.62424266 -80.25187851 225.15009747 -63.75 230.6875 C-60.27674819 231.8452506 -57.38932552 231.75616652 -53.75 231.6875 C-53.75 230.0375 -53.75 228.3875 -53.75 226.6875 C-59.94819964 223.80098731 -66.19252621 221.37995047 -72.6875 219.25 C-73.59846436 218.94924561 -74.50942871 218.64849121 -75.44799805 218.33862305 C-85.60784725 215.02380562 -95.86615441 212.02288265 -106.28515625 209.6328125 C-107.01500732 209.46225342 -107.7448584 209.29169434 -108.49682617 209.1159668 C-110.49208065 208.65566431 -112.49201137 208.21576619 -114.4921875 207.77734375 C-119.98365349 205.94027059 -122.25199638 202.12799583 -125.4375 197.5 C-132.80449118 187.26275252 -142.00339725 177.62745322 -154.75 174.6875 C-157.32196654 174.74153182 -159.80757233 175.03875444 -162.36157227 175.34033203 C-168.36742381 175.95901062 -174.02662919 176.37878017 -179.31396484 173.09521484 C-184.31610593 168.84708411 -188.52607465 163.88481929 -192.77490234 158.90136719 C-200.11231825 150.67693116 -209.72836654 145.04985809 -219.75 140.6875 C-220.51699219 140.31367187 -221.28398438 139.93984375 -222.07421875 139.5546875 C-225.72629224 138.3710958 -229.26151411 138.30626751 -233.0625 138.3125 C-234.20090332 138.30947876 -234.20090332 138.30947876 -235.36230469 138.30639648 C-241.17339952 138.41217794 -244.73599587 139.69838215 -249.75 142.6875 C-258.70579009 141.97394924 -265.70386081 134.09070245 -271.25390625 127.703125 C-273.99913049 124.00459834 -274.1547918 120.35489342 -274.08984375 115.90234375 C-273.52539883 112.22371994 -271.65810257 110.85310829 -268.75 108.6875 C-267.739375 107.924375 -266.72875 107.16125 -265.6875 106.375 C-257.39417275 102.00539747 -247.11787785 104.79898539 -238.65625 107.37890625 C-223.0448549 112.4721239 -209.80370761 120.93742422 -196.2421875 130.0390625 C-188.37702389 135.2509179 -180.24750155 139.64894027 -171.8527832 143.95605469 C-159.47628795 150.32300791 -147.42096498 157.25425457 -135.37109375 164.21484375 C-134.7272876 164.58577148 -134.08348145 164.95669922 -133.42016602 165.33886719 C-131.77518911 166.28831394 -130.13351765 167.24348162 -128.4921875 168.19921875 C-124.1637268 170.54842605 -120.10651807 171.90388303 -115.28491211 172.9284668 C-104.42175666 175.24120237 -94.14882946 178.83426498 -83.75 182.6875 C-82.72197266 183.06664551 -81.69394531 183.44579102 -80.63476562 183.83642578 C-61.17041046 191.02862806 -61.17041046 191.02862806 -55.734375 193.44140625 C-52.78491528 194.6729215 -50.90298062 194.9741346 -47.75 194.6875 C-47.75 192.7075 -47.75 190.7275 -47.75 188.6875 C-55.54098634 184.54429054 -63.55793621 181.28734469 -71.8125 178.1875 C-72.45273102 177.94594177 -73.09296204 177.70438354 -73.75259399 177.45550537 C-81.08056431 174.69576436 -88.41224382 171.99042998 -95.9375 169.8125 C-96.59717773 169.62147705 -97.25685547 169.4304541 -97.93652344 169.23364258 C-101.20080785 168.31845682 -104.46962114 167.52659688 -107.7890625 166.84765625 C-121.41003071 163.86373006 -132.63390985 156.81480646 -144.47354126 149.77203369 C-150.26792526 146.34258518 -156.19992964 143.20373992 -162.1875 140.125 C-163.62077637 139.38286255 -163.62077637 139.38286255 -165.08300781 138.62573242 C-168.78405629 136.71334948 -172.49091496 134.81675076 -176.21875 132.95703125 C-184.8787465 128.52448041 -192.79298707 123.05932376 -200.84375 117.6159668 C-207.5607386 113.08973845 -214.33101339 108.86155404 -221.43359375 104.97265625 C-223.75 103.6875 -223.75 103.6875 -224.75 102.6875 C-225.12794846 99.47493812 -225.41110143 96.85632733 -223.7734375 93.9609375 C-220.48973152 89.87141411 -217.84541045 87.94044027 -212.67578125 87.31640625 C-190.22699385 86.90383394 -169.733959 97.46064645 -152.1171875 110.66015625 C-147.49561071 113.44275295 -142.63462646 115.08130181 -137.5625 116.875 C-129.65157954 119.75520411 -121.90962477 122.80422651 -114.3125 126.4375 C-113.57555908 126.78965576 -112.83861816 127.14181152 -112.0793457 127.50463867 C-109.20888704 128.90397498 -106.38862671 130.2900304 -103.67529297 131.97875977 C-97.28030675 135.91475094 -91.11735829 137.02648429 -83.75 138.125 C-65.46824038 141.11724099 -47.47039504 145.27222863 -29.75 150.6875 C-29.02683594 150.84863281 -28.30367187 151.00976562 -27.55859375 151.17578125 C-21.18347627 152.86293355 -17.23890294 157.95319389 -12.828125 162.55078125 C-4.32037031 171.36009688 6.0471165 179.79284408 17.8125 183.5625 C21.9769109 185.10778455 21.9769109 185.10778455 23.140625 187.578125 C23.42937233 189.10741642 23.66665035 190.64707323 23.859375 192.19140625 C25.06953794 199.92434742 29.61330632 205.92838214 35.5234375 210.80078125 C48.30682372 219.64659149 61.45521463 223.80513485 77.05859375 221.22265625 C82.51849216 219.78315105 86.79375309 217.30893604 91.33984375 213.9921875 C93.25 212.6875 93.25 212.6875 96.25 211.6875 C97.33107998 209.92930508 97.33107998 209.92930508 98.25 207.6875 C98.9615625 206.31658203 98.9615625 206.31658203 99.6875 204.91796875 C106.69178038 191.27713272 108.10689837 180.73833629 103.44140625 165.9453125 C99.78552634 155.94857858 93.86654908 147.02590452 84.3125 141.9375 C82.01953125 140.53515625 82.01953125 140.53515625 80.25 138.6875 C79.56202971 135.38787181 79.49965145 132.32416986 79.4765625 128.95703125 C79.09521963 123.4538592 76.52231973 118.89581073 72.5859375 115.0703125 C71.25 113.6875 71.25 113.6875 71.25 111.6875 C70.66734375 111.43355469 70.0846875 111.17960938 69.484375 110.91796875 C67.00811967 109.55429667 65.44479374 108.04524797 63.5 106 C60.26479283 102.68107213 56.93880526 99.57463657 53.41333008 96.56762695 C52.01122585 95.34907321 50.62816053 94.1081179 49.26904297 92.84179688 C43.69058573 87.67399961 37.79841052 83.63035747 31.3125 79.6875 C12.60331272 68.26642122 -4.88999602 52.39093446 -10.38671875 30.1796875 C-11.60000221 21.85630201 -11.70673016 13.30024883 -7.75 5.6875 C-5.30306643 2.44696635 -3.94140545 0.98535136 0 0 Z " fill="#FDFDFD" transform="translate(764.75,546.3125)"/>
<path d="M0 0 C3.58251719 0.56376622 6.1569085 1.45833263 9.23046875 3.37109375 C10.02420898 3.85803711 10.81794922 4.34498047 11.63574219 4.84667969 C12.47782227 5.37165039 13.31990234 5.89662109 14.1875 6.4375 C15.98691339 7.53739719 17.78772372 8.63501189 19.58984375 9.73046875 C20.94891846 10.55683838 20.94891846 10.55683838 22.33544922 11.39990234 C28.42409956 15.05621665 34.63419818 18.49078371 40.88574219 21.859375 C42.26468581 22.60330394 43.64051461 23.35304444 45.01269531 24.109375 C55.18402574 29.69323815 65.44486061 33.26264273 76.61791992 36.33837891 C86.66753316 39.12965203 96.56343181 42.42594871 106.47485352 45.66601562 C113.78587538 48.05400687 121.0931396 50.35869729 128.53051758 52.32910156 C132.4344773 53.38971267 136.27604596 54.63194452 140.125 55.875 C148.34351865 58.49888654 156.59603913 60.97724168 164.88085938 63.38232422 C167.07331653 64.02136991 169.26347367 64.66781511 171.453125 65.31640625 C177.64129906 67.14820358 183.8233478 68.97270038 190.0625 70.625 C193.05337912 71.42644815 195.9311329 72.30553435 198.8125 73.4375 C206.93300516 76.62394418 215.54547429 78.62332517 223.96484375 80.859375 C247.22973449 87.10469692 261.43693877 94.09713365 276.7109375 113.203125 C279.88157981 117.07715212 283.25836496 120.74427861 286.64453125 124.4296875 C291.58590897 129.82177131 296.34610616 135.35891656 301 141 C297.02020573 149.73236413 288.70835697 156.38184144 281.9609375 163 C278.70370022 166.21950866 275.54829194 169.46324901 272.5625 172.9375 C267.89913255 178.35165903 262.76373426 183.28263712 257.671875 188.2890625 C253.37983845 192.53730276 249.3501665 196.82312244 245.60546875 201.56640625 C244 203 244 203 240 203 C238.31176758 201.93359375 238.31176758 201.93359375 236.64453125 200.4375 C236.02642578 199.89182373 235.40832031 199.34614746 234.77148438 198.78393555 C234.12501953 198.19523682 233.47855469 197.60653809 232.8125 197 C232.14412109 196.40421143 231.47574219 195.80842285 230.78710938 195.19458008 C229.45573131 194.00674725 228.12768692 192.81516593 226.80322266 191.61962891 C224.5642165 189.60858547 222.27967412 187.65219324 220 185.6875 C216.71171664 182.75305789 213.85209393 179.62905295 211.01171875 176.265625 C208.4566346 173.3880545 205.73824618 170.70209494 203 168 C194.82853433 159.89627445 187.81445406 151.27136606 181 142 C195.6921021 174.26705167 214.69874465 198.86303831 243.5546875 219.76171875 C248.50763981 223.35037858 253.28642313 227.10134408 258 231 C258.60457031 231.47050781 259.20914062 231.94101562 259.83203125 232.42578125 C264.39394099 236.0814877 267.90571745 240.37699411 271.54296875 244.9375 C274.15875146 248.19787146 276.84922844 251.38345483 279.5625 254.5625 C282.81884137 258.38682095 286.01465964 262.24237644 289.125 266.1875 C291.76799015 269.53564638 294.53139882 272.69057438 297.4375 275.8125 C307.15690654 286.50721031 315.94688131 297.91650212 315.37109375 312.921875 C314.41762827 320.83062021 310.37805958 325.32916829 304.33203125 330.30078125 C296.52521298 335.98916642 287.36259301 336.15738124 278 335 C273.34567397 333.88101569 269.27757039 332.13126309 265 330 C264.38688965 329.6994873 263.7737793 329.39897461 263.14208984 329.08935547 C243.88654434 319.49303812 226.15274926 304.34270488 213.46484375 286.96606445 C211.14389542 283.85096498 208.60989572 280.93056252 206.0625 278 C205.53599854 277.39260986 205.00949707 276.78521973 204.46704102 276.15942383 C203.43345288 274.96718971 202.3992215 273.77551286 201.36425781 272.58447266 C200.24383584 271.28319517 199.14599685 269.96250622 198.0546875 268.63671875 C190.60362782 259.65585214 181.0681379 252.78628615 171 247 C170.1853125 246.525625 169.370625 246.05125 168.53125 245.5625 C158.13424732 240.17146157 146.09739792 239.54266987 134.6237793 238.28881836 C98.90838456 234.36744315 65.26399601 221.98262536 38.53710938 197.41113281 C37.15082087 196.13846007 35.74079967 194.89175644 34.328125 193.6484375 C22.91515352 183.07144801 14.92675024 168.80472054 8 155 C9.86413004 178.34822873 24.61250689 200.3909609 41.8125 215.46484375 C68.88467482 237.55594559 103.24602287 247.2529696 137.49609375 250.41796875 C159.20158747 252.47890357 173.61965057 261.03848006 189 276 C190.04607422 276.91845703 190.04607422 276.91845703 191.11328125 277.85546875 C194.95143757 281.28775107 194.95143757 281.28775107 195.1875 284.75 C193.58867732 287.77934823 192.22840827 287.98827951 189 289 C186.2043457 289.23950195 186.2043457 289.23950195 183.17578125 289.23828125 C181.50805664 289.26245117 181.50805664 289.26245117 179.80664062 289.28710938 C177.4967999 289.30389413 175.1868455 289.3093003 172.87695312 289.30273438 C161.1739763 289.51183655 153.7554164 293.58150484 145.33203125 301.52734375 C137.90930547 309.39767109 133.43247613 316.77796299 133.52734375 327.71484375 C134.22895592 332.59133829 136.33864869 336.37426372 138.78515625 340.6015625 C139.38650391 341.78878906 139.38650391 341.78878906 140 343 C139.67 343.66 139.34 344.32 139 345 C138.34515625 344.23816406 137.6903125 343.47632813 137.015625 342.69140625 C127.98206364 332.38433226 117.71049541 322.39713673 104 319 C101.79013377 319.01310715 99.57963772 319.0975104 97.375 319.25 C92.12782567 319.45589388 89.83791512 318.7259566 85.9375 315.1875 C84.27235721 313.47691992 82.62730051 311.74661896 81 310 C69.65931473 299.06608249 57.36043656 289.74402911 44.1875 281.1171875 C25.73637698 268.86166216 8.66029084 255.68630461 -7 240 C-7.61101562 239.43539062 -8.22203125 238.87078125 -8.8515625 238.2890625 C-24.56394006 223.54573025 -39.34416027 200.27350113 -44.19921875 179.1484375 C-46.23011871 173.69968152 -50.76496253 170.3565982 -55.25 166.9375 C-55.85118652 166.47214844 -56.45237305 166.00679687 -57.07177734 165.52734375 C-63.79200747 160.34547956 -70.58949584 155.26369811 -77.39550781 150.1953125 C-79.26689949 148.80116557 -81.13424707 147.4016824 -83 146 C-81.01467495 139.44212062 -78.4298377 133.41822086 -75.3515625 127.3046875 C-74.90272202 126.40286743 -74.45388153 125.50104736 -73.99143982 124.57189941 C-72.54318682 121.66924876 -71.08503296 118.77174128 -69.625 115.875 C-69.12757294 114.88413391 -68.63014587 113.89326782 -68.11764526 112.87237549 C-61.28707639 99.2756576 -54.3164606 85.82610026 -46.58789062 72.71386719 C-44.77668217 69.61832703 -43.00433204 66.5021162 -41.234375 63.3828125 C-34.9864203 52.39589016 -28.66637447 41.56648409 -21.47998047 31.16796875 C-19.6185485 28.44122578 -17.79574132 25.69002577 -15.97265625 22.9375 C-14.89842407 21.31642334 -14.89842407 21.31642334 -13.80249023 19.66259766 C-12.37794901 17.51181033 -10.9542494 15.36046527 -9.53149414 13.20849609 C-8.8739917 12.21930176 -8.21648926 11.23010742 -7.5390625 10.2109375 C-6.95334473 9.32712402 -6.36762695 8.44331055 -5.76416016 7.53271484 C-3.94816535 4.92558364 -2.01134622 2.45855743 0 0 Z " fill="#FEFEFE" transform="translate(137,103)"/>
<path d="M0 0 C9.02377148 3.53522755 16.52666239 9.97754719 24 16 C24.93972656 16.74507812 25.87945313 17.49015625 26.84765625 18.2578125 C32.86836527 23.0917055 38.57708885 28.20220083 44.234375 33.44921875 C46.44055947 35.48401883 48.66632261 37.47646238 50.9375 39.4375 C55.01021837 42.96831821 58.95905307 46.62856617 62.90600586 50.29858398 C65.28077315 52.50332554 67.65802031 54.69884536 70.09008789 56.84057617 C77.55520938 63.43312069 84.58502153 70.43296738 91.61450195 77.48413086 C93.69044426 79.56545189 95.77170422 81.64134813 97.85351562 83.71679688 C99.19823752 85.06217938 100.54264929 86.40787194 101.88671875 87.75390625 C102.49730637 88.36246964 103.10789398 88.97103302 103.73698425 89.59803772 C107.46235286 93.34338286 110.99935607 97.20804763 114.44798279 101.20986938 C116.69605997 103.8028508 119.03589083 106.30129421 121.375 108.8125 C126.48946416 114.35667737 131.29976031 120.0990268 136 126 C136.93080133 127.14989199 137.86180024 128.29962408 138.79296875 129.44921875 C154.34011659 148.76060606 154.34011659 148.76060606 153.78125 156.640625 C151.23838146 164.320088 143.60721326 171.48043368 137 176 C130.43074161 179.05001282 124.7459438 179.43448325 117.5625 179.5 C105.8130533 179.49223824 105.8130533 179.49223824 95.34179688 184.27441406 C92.8218219 186.92231545 92.01367043 188.89063658 91.5625 192.5 C91.87469745 195.95667108 91.87469745 195.95667108 93 198.9375 C94.64079544 203.96243604 94.95936119 208.08127763 92.5625 212.875 C91.73682417 213.93939164 90.87827641 214.97857909 90 216 C89.20722656 216.95326172 89.20722656 216.95326172 88.3984375 217.92578125 C82.2768793 224.98630356 75.56886476 231.49358731 68.91577148 238.04760742 C65.32302092 241.60149366 61.80055274 245.15670889 58.5078125 248.9921875 C53.67326324 254.6224551 48.31269252 259.7317418 43.02734375 264.93359375 C39.40701013 268.51906059 35.84892946 272.09941892 32.53125 275.96875 C27.49390761 281.8368736 21.88827496 287.15483362 16.3828125 292.578125 C11.99698431 296.92396083 7.78770818 301.32150779 3.76953125 306.0078125 C-0.35991893 310.65686238 -4.89621056 314.93150904 -9.328125 319.2890625 C-13.57418278 323.49179316 -17.609719 327.74521211 -21.39453125 332.37109375 C-23.7666678 334.77786003 -25.93216817 335.89248792 -29.2890625 336.23046875 C-30.05992187 336.21628906 -30.83078125 336.20210937 -31.625 336.1875 C-32.40101563 336.18105469 -33.17703125 336.17460938 -33.9765625 336.16796875 C-36 336 -36 336 -38 335 C-42.79038736 334.3412041 -45.97920133 334.23983078 -49.9375 337.1875 C-53.8878207 342.57430095 -54.24596904 347.00234729 -54.0546875 353.5546875 C-54.02939266 355.238273 -54.00467091 356.92186719 -53.98046875 358.60546875 C-53.93090835 361.24100273 -53.87497268 363.8760767 -53.80810547 366.51123047 C-53.74736928 369.06741098 -53.71205683 371.62301181 -53.6796875 374.1796875 C-53.63930862 375.34877151 -53.63930862 375.34877151 -53.59811401 376.54147339 C-53.53621901 383.35721067 -55.73235383 387.31180854 -60.1484375 392.546875 C-69.58242372 401.8815561 -69.58242372 401.8815561 -77.125 402.625 C-93.13354971 401.88165109 -110.48457838 382.46041284 -122.07421875 372.4921875 C-124.75779581 370.20631011 -127.49038526 368.00529732 -130.25 365.8125 C-136.63472257 360.62083508 -142.54223388 354.93254057 -148.49609375 349.2578125 C-151.84341707 346.07004834 -155.24802713 342.95300665 -158.671875 339.84765625 C-164.97888862 334.10142703 -171.03502025 328.1172437 -177.05639648 322.07397461 C-178.82487219 320.30008997 -180.59870044 318.53168223 -182.37304688 316.76367188 C-188.12869789 311.01174022 -193.75450713 305.22775528 -199 299 C-199.9725048 297.88154698 -200.94643439 296.76433103 -201.921875 295.6484375 C-208.87140427 287.62500013 -215.55174138 279.43136407 -222 271 C-222.75539063 270.01902344 -223.51078125 269.03804688 -224.2890625 268.02734375 C-229.1527371 261.55155228 -233.88843882 254.95149981 -235.6875 246.9375 C-233.62041594 238.10541357 -226.08210413 231.11122531 -219.109375 225.796875 C-212.86199238 222.33473903 -205.00307409 223.89298467 -198.13476562 224.24414062 C-191.04494682 224.45394542 -186.24177201 223.85156723 -180.09692383 220.18920898 C-178.04527206 219.02567473 -176.30192252 218.45373964 -174 218 C-172.29017889 219.85281327 -170.58201734 221.707106 -168.875 223.5625 C-168.36582031 224.11462158 -167.85664063 224.66674316 -167.33203125 225.2355957 C-164.800166 227.99207495 -162.34066658 230.7651293 -160 233.6875 C-149.14101279 246.46459891 -133.024119 255.83121208 -118 263 C-116.89140625 263.53109375 -115.7828125 264.0621875 -114.640625 264.609375 C-103.15314928 269.40930617 -89.08917822 270.4646777 -77.3125 265.9375 C-66.52721672 260.49161648 -60.32903627 253.86863119 -55.625 242.75 C-52.83547029 226.01282175 -58.2923312 214.0768936 -67.77197266 200.64013672 C-70.39163688 197.1413486 -73.39451046 194.00652226 -76.3984375 190.83984375 C-79.2753586 187.69942087 -81.89549755 184.42867066 -84.5 181.0625 C-89.523508 174.57992588 -94.69804623 168.25759189 -100 162 C-100.85271484 160.97712891 -100.85271484 160.97712891 -101.72265625 159.93359375 C-109.51450984 150.76332871 -118.05729926 141.82342207 -128 135 C-122.69672703 127.32004055 -116.19734036 121.00339089 -109.5625 114.5 C-107.35201508 112.32639391 -105.14484512 110.14949867 -102.94140625 107.96875 C-102.41185333 107.44478638 -101.88230042 106.92082275 -101.33670044 106.38098145 C-97.94439669 103.00187628 -94.75028117 99.51687439 -91.64819336 95.87304688 C-87.77875523 91.47572361 -83.49318264 87.45752642 -79.31640625 83.35546875 C-75.2253113 79.30876181 -71.3253303 75.18876869 -67.61694336 70.78686523 C-63.75162454 66.51534652 -59.63405622 62.93792199 -53.8125 62.0625 C-50.53849249 62.00882775 -48.15967258 62.36048606 -45 63 C-37.47139437 63.80385686 -37.47139437 63.80385686 -30.875 60.6875 C-27.78687221 56.2611835 -27.91974958 53.05178518 -28.04296875 47.76953125 C-28.06537404 46.31186282 -28.08682756 44.85417951 -28.10742188 43.39648438 C-28.14435425 41.10985653 -28.18720014 38.82399725 -28.24682617 36.5378418 C-28.56106552 23.88730653 -27.01070966 16.58891178 -18.0703125 7.0546875 C-12.51589815 1.54219326 -8.11708802 -1.78211708 0 0 Z " fill="#FEFEFE" transform="translate(517,180)"/>
<path d="M0 0 C3.49693989 2.22532539 5.44309782 4.18803324 7 8 C7.23046875 10.1484375 7.23046875 10.1484375 7.1875 12.375 C7.17976562 13.16519531 7.17203125 13.95539063 7.1640625 14.76953125 C7 17 7 17 6.0625 20.0625 C5.97081126 24.37187086 8.18527241 26.14195831 11.07421875 29.1640625 C13.27807761 31.26510442 15.53673416 33.20853393 18 35 C18.763125 34.690625 19.52625 34.38125 20.3125 34.0625 C24.95705939 32.22627885 29.00855329 31.32752805 34 32 C38.79765866 34.39882933 41.565249 37.22414226 44 42 C44.52821909 46.22575274 44.31615304 48.37985365 42.375 52.1875 C40.6903243 54.80093686 40.6903243 54.80093686 41.625 56.875 C45.97601128 63.59929016 52.81842086 68.91755965 58.87109375 74.08984375 C62.01739667 76.91285683 64.95728888 79.93613775 67.92456055 82.9440918 C71.21349798 86.26048949 74.62161413 89.3599145 78.171875 92.390625 C80.64447732 94.56736038 82.92306638 96.91264771 85.23046875 99.26171875 C87.03010481 101.02957316 88.89601912 102.67254542 90.8125 104.3125 C94.02333755 107.07618029 97.02267165 109.98619596 100 113 C103.56359983 116.60719127 107.21924856 119.99477889 111.0703125 123.2890625 C113.84107582 125.74573119 116.402929 128.39359977 119 131.03125 C120.93891002 132.93986455 122.93699551 134.72710552 125 136.5 C127.78896393 138.89676588 130.41990785 141.37959391 133 144 C135.51955389 146.55869259 138.08118782 148.98170611 140.8125 151.3125 C144.20195561 154.22250413 147.36452146 157.32159176 150.5 160.5 C154.21142043 164.26216622 158.0185842 167.82809836 162.0390625 171.2578125 C165.09503533 173.97287999 167.91919945 176.91127043 170.7890625 179.8203125 C172.75892811 181.76233548 174.77153633 183.58061671 176.875 185.375 C181.18692246 189.0684794 185.13072066 193.09772597 189.09375 197.15625 C191.24456432 199.31316268 193.49152493 201.31479236 195.80078125 203.30078125 C200.32043155 207.21396772 204.49974456 211.42489638 208.6875 215.6875 C214.033417 221.18924302 214.033417 221.18924302 219.80078125 226.23046875 C228.58401023 233.29761392 233.35260807 245.6337282 237 256 C237.845625 256.08636719 238.69125 256.17273438 239.5625 256.26171875 C249.70422652 257.51790988 256.2479933 260.18188698 263 268 C270.82985068 278.52441276 272.40294298 288.1108345 271 301 C268.95632079 308.91677675 263.63837941 314.45450868 257 319 C249.62758244 322.95950816 240.85855764 323.36989407 232.8828125 321.12109375 C224.21940778 317.7813843 215.74271976 312.85908492 210.99609375 304.59765625 C208.72069985 298.66378587 207.93441896 292.25984735 207 286 C206.41734375 285.92523437 205.8346875 285.85046875 205.234375 285.7734375 C193.67248743 283.91917251 185.11656043 278.73535325 176.765625 270.66015625 C174.66626867 268.64086012 172.55327553 266.7375958 170.34570312 264.84399414 C165.95351341 261.0119843 161.81766223 256.96217666 157.703125 252.8359375 C156.9470697 252.08083893 156.1910144 251.32574036 155.41204834 250.54776001 C153.82766993 248.96405734 152.24453449 247.37911028 150.66259766 245.79296875 C148.24624492 243.37123656 145.82457004 240.95491838 143.40234375 238.5390625 C141.85644991 236.99250821 140.31086612 235.44564395 138.765625 233.8984375 C138.0457843 233.18062103 137.3259436 232.46280457 136.58428955 231.72323608 C133.16411187 228.28707721 129.96800501 224.84389706 127 221 C125.7595256 219.86183277 124.48880907 218.75558056 123.1875 217.6875 C120.36754963 215.28454783 117.89136238 212.82914039 115.5 210 C113.23406964 207.32579389 110.93664719 204.99979399 108.25 202.75 C104.89802614 199.91503141 101.98226649 196.85402915 99.05175781 193.58691406 C93.44601526 187.40239722 87.6026952 181.48443121 81.67995453 175.60478973 C79.8683804 173.80626576 78.06020061 172.00438519 76.25274658 170.20172119 C72.42135318 166.38160804 68.58598454 162.56550218 64.75 158.75 C60.28345043 154.30720421 55.81862916 149.86269801 51.35800934 145.41394806 C49.59041356 143.65275583 47.8197994 141.89463922 46.04901123 140.13665771 C41.03773599 135.14800928 36.11967926 130.13592854 31.52639771 124.753479 C28.95843896 121.80348653 26.18742144 119.06391269 23.41015625 116.3125 C22.82076767 115.72452637 22.23137909 115.13655273 21.62413025 114.53076172 C19.77262382 112.68477639 17.91764183 110.84233108 16.0625 109 C14.79338627 107.7359115 13.52450411 106.47159044 12.25585938 105.20703125 C9.1732368 102.13533276 6.08749572 99.06679992 3 96 C2.46383057 96.28294922 1.92766113 96.56589844 1.37524414 96.85742188 C0.66489014 97.22416016 -0.04546387 97.59089844 -0.77734375 97.96875 C-1.47851318 98.33419922 -2.17968262 98.69964844 -2.90209961 99.07617188 C-6.70289966 100.74988622 -10.01825622 100.76725898 -13.88671875 99.26953125 C-17.90665377 97.20478475 -20.43357477 95.23856238 -22 91 C-22.98257343 82.48897665 -22.98257343 82.48897665 -20.4765625 78.69140625 C-19.74566406 77.85416016 -19.74566406 77.85416016 -19 77 C-20.58787388 73.23321029 -22.94032891 70.62914049 -25.75 67.6875 C-26.59046875 66.78386719 -27.4309375 65.88023437 -28.296875 64.94921875 C-30.86247987 62.66561135 -30.86247987 62.66561135 -34.078125 63.1875 C-35.04234375 63.455625 -36.0065625 63.72375 -37 64 C-41.47252634 64.5015149 -44.25585442 64.39313351 -48.3125 62.25 C-53.82234715 57.63710471 -53.82234715 57.63710471 -54.30859375 53.15625 C-53.92686322 49.25196816 -52.90681046 48.14669648 -50.1875 45.375 C-49.36507812 44.51648438 -48.54265625 43.65796875 -47.6953125 42.7734375 C-46.80585937 41.85820312 -45.91640625 40.94296875 -45 40 C-43.63725187 38.51651456 -42.28848008 37.02108389 -40.93969727 35.52490234 C-36.20638195 30.28393665 -31.29543755 25.26336904 -26.26953125 20.30078125 C-23.64791296 17.64306494 -21.22509196 14.85635728 -18.796875 12.0234375 C-7.46939202 -0.73229334 -7.46939202 -0.73229334 0 0 Z " fill="#FDFDFD" transform="translate(589,436)"/>
<path d="M0 0 C3.21047682 1.57464463 6.1834089 3.33519417 9.19140625 5.2734375 C10.20895996 5.92731445 11.22651367 6.58119141 12.27490234 7.25488281 C13.90226318 8.30434082 13.90226318 8.30434082 15.5625 9.375 C17.83658705 10.83695418 20.11165822 12.29737382 22.38671875 13.7578125 C22.95356384 14.12193237 23.52040894 14.48605225 24.10443115 14.86120605 C31.29098552 19.47540532 38.51706587 24.02652433 45.74365234 28.57763672 C48.01423449 30.00897318 50.28282039 31.44342044 52.55078125 32.87890625 C61.34995851 38.44706287 70.16706632 43.98553199 79 49.5 C88.56891661 55.47394778 98.11671344 61.48010997 107.6484375 67.51318359 C110.15990677 69.10110385 112.67348459 70.68564542 115.1875 72.26953125 C116.04496826 72.81005127 116.90243652 73.35057129 117.78588867 73.9074707 C119.41850982 74.9365158 121.05146209 75.96503583 122.68481445 76.99291992 C126.82917469 79.60667974 130.93708404 82.26124584 135 85 C133.74568733 87.67574618 132.40568635 89.90038405 130.515625 92.16796875 C113.36909911 113.23277535 98.5435874 136.48394616 85 160 C84.01338898 161.68901719 83.02639809 163.37781252 82.0390625 165.06640625 C74.61729848 177.8342753 67.71540035 190.84879773 61 204 C60.64518555 204.69303223 60.29037109 205.38606445 59.92480469 206.10009766 C57.98759716 209.89502243 56.08742994 213.70693323 54.2109375 217.53222656 C53.29693929 219.39486647 52.37971335 221.25592303 51.4609375 223.11621094 C43.37319541 239.51789339 35.78915797 256.00801653 29 273 C28.6174707 273.95471191 28.23494141 274.90942383 27.84082031 275.89306641 C26.89245765 278.26147956 25.94551575 280.63044919 25 283 C22.45844952 281.67735638 19.95550929 280.32008711 17.47426033 278.88623714 C14.04322894 276.92968173 14.04322894 276.92968173 10.37081718 275.58416843 C6.18734118 273.78036223 2.68427285 271.7660183 0 268 C-2.70190404 259.90938327 -1.76453171 250.77815181 -1.58935547 242.37670898 C-1.58540443 239.73481689 -1.58701021 237.09347042 -1.59555054 234.4516449 C-1.60287394 228.77212766 -1.55914857 223.09487071 -1.48022079 217.41592216 C-1.36618641 209.20564302 -1.32995621 200.99645103 -1.31238891 192.78546584 C-1.28178659 179.46272228 -1.18872647 166.14118226 -1.05615234 152.8190918 C-0.92754359 139.88197836 -0.82849736 126.94519242 -0.76904297 114.00756836 C-0.76536484 113.20941806 -0.76168671 112.41126775 -0.75789712 111.58893108 C-0.73962591 107.58463775 -0.72193417 103.5803421 -0.70453048 99.57604492 C-0.55951673 66.3831539 -0.31304216 33.19173829 0 0 Z " fill="#FEFEFE" transform="translate(0,0)"/>
<path d="M0 0 C7.34516737 3.46615088 14.01143431 8.27448012 19.80078125 13.97265625 C19.80078125 14.63265625 19.80078125 15.29265625 19.80078125 15.97265625 C20.39246094 16.23433594 20.98414063 16.49601562 21.59375 16.765625 C23.91340311 18.03424944 25.28605242 19.390719 27.11328125 21.28515625 C30.85854829 24.70959967 34.17326175 25.80463931 39.05078125 27.09765625 C48.28335146 29.68947632 53.01586386 35.66885333 58.80078125 42.97265625 C59.62449219 43.96652344 60.44820313 44.96039063 61.296875 45.984375 C62.7949994 47.79576656 64.28154354 49.61682574 65.75390625 51.44921875 C68.67056116 55.04494218 71.72095985 58.51652226 74.80078125 61.97265625 C72.25021955 64.52321795 70.21358353 64.79590897 66.73828125 65.72265625 C60.54558096 67.54686254 55.91100674 70.1012733 50.80078125 73.97265625 C43.42717683 78.88839253 31.83976899 75.88601715 23.55078125 74.28515625 C13.48019075 72.20343639 6.02281785 69.50963881 -1.19921875 61.97265625 C-2.09898437 61.03550781 -2.99875 60.09835937 -3.92578125 59.1328125 C-10.69565171 51.93720792 -16.97558844 44.48929063 -22.93408203 36.60986328 C-24.13775595 35.05219495 -25.39969781 33.54007188 -26.6640625 32.03125 C-31.10768548 26.54114991 -33.32092517 22.59543284 -32.71875 15.41015625 C-31.33105192 8.89945249 -26.38366076 4.74729386 -21.19921875 0.97265625 C-15.10322225 -2.86361741 -6.60380429 -2.12063556 0 0 Z " fill="#FCFCFC" transform="translate(243.19921875,433.02734375)"/>
<path d="M0 0 C12.90587174 6.96372235 25.90451241 18.02177456 34.9609375 29.59765625 C34.4659375 30.23703125 33.9709375 30.87640625 33.4609375 31.53515625 C31.36775836 35.80873033 31.00024825 39.01052414 31.9609375 43.59765625 C35.89512919 53.56203349 41.68756487 62.43353572 47.52514648 71.36621094 C51.0082323 76.7974634 53.78293503 82.275845 56.2734375 88.22265625 C60.44248268 98.15426247 66.14977964 105.21385657 73.9609375 112.59765625 C65.69091028 112.59765625 56.4046657 103.54093059 50.671875 98.1328125 C47.43327158 95.10420498 44.07835625 92.23113971 40.7109375 89.34765625 C34.93617566 84.37683615 29.30906017 79.27112371 23.75024414 74.06054688 C20.76369199 71.26276776 17.75544231 68.51255761 14.6484375 65.84765625 C8.54444054 60.5488674 2.93883446 54.92210871 -2.1015625 48.59765625 C-6.80478112 42.70826432 -11.9553771 37.29222578 -17.19165039 31.875 C-31.49662504 16.94745649 -31.49662504 16.94745649 -31.3828125 7.07421875 C-31.0390625 4.59765625 -31.0390625 4.59765625 -28.9140625 1.66015625 C-19.23597488 -5.28281965 -10.67502947 -4.92588121 0 0 Z " fill="#FBFBFB" transform="translate(546.0390625,696.40234375)"/>
<path d="M0 0 C4.06498523 -0.64283487 7.21150424 -0.80952056 10.984375 0.84375 C17.32908508 5.59046501 22.51549317 11.64314805 27.79394531 17.51025391 C30.4092847 20.29641238 33.20610757 22.75961106 36.11767578 25.22827148 C39.06424845 27.77829389 41.7629601 30.55797021 44.484375 33.34375 C48.66971061 37.58798269 52.8966238 41.67485929 57.49609375 45.4765625 C58.984375 46.84375 58.984375 46.84375 60.984375 49.84375 C59.28245115 50.8340153 57.57249489 51.81048206 55.859375 52.78125 C54.43238281 53.59916016 54.43238281 53.59916016 52.9765625 54.43359375 C45.02754118 58.17980354 36.2327627 57.62792823 28.08789062 54.85742188 C27.33185547 54.58478516 26.57582031 54.31214844 25.796875 54.03125 C25.02923828 53.77021484 24.26160156 53.50917969 23.47070312 53.24023438 C20.15386035 52.08914498 17.10208433 50.90715568 14.00390625 49.23828125 C10.01627768 47.39664684 6.18650461 46.91380135 1.859375 46.34375 C-20.37702186 43.07589031 -20.37702186 43.07589031 -26.015625 36.84375 C-28.32023481 32.86306033 -28.46231422 29.38509038 -28.015625 24.84375 C-25.12250561 15.31435159 -20.46658597 9.10481336 -12.015625 3.84375 C-8.1468783 1.84601567 -4.16153805 1.16436816 0 0 Z " fill="#FBFBFB" transform="translate(318.015625,505.15625)"/>
<path d="M0 0 C1.33571768 2.67143536 0.82992163 4.12547476 0.36328125 7.06640625 C0.20021484 8.10144287 0.03714844 9.13647949 -0.13085938 10.20288086 C-0.40639648 11.86589233 -0.40639648 11.86589233 -0.6875 13.5625 C-0.87248047 14.69115479 -1.05746094 15.81980957 -1.24804688 16.98266602 C-6.95187747 50.95187747 -6.95187747 50.95187747 -16 60 C-21.09769731 63.2552923 -27.20440987 62.7915928 -33 62 C-38.17499301 59.57310673 -40.87002049 55.1408268 -43.2734375 50.125 C-45.0217017 45.01179718 -45.11307711 39.98617331 -45.0625 34.625 C-45.05347656 33.37976563 -45.04445313 32.13453125 -45.03515625 30.8515625 C-45.02355469 29.91054688 -45.01195312 28.96953125 -45 28 C-44.0821875 28.04640625 -43.164375 28.0928125 -42.21875 28.140625 C-32.69516102 28.42073056 -27.38994067 27.98678286 -20.3203125 21.56640625 C-15.44079004 16.87484562 -10.89842322 11.87291249 -6.50390625 6.7265625 C-4.44501641 4.36285001 -2.24967462 2.18150266 0 0 Z " fill="#F9F9F9" transform="translate(523,499)"/>
</svg>
